<svg width="76" height="76" xmlns="http://www.w3.org/2000/svg" xmlns:xlink="http://www.w3.org/1999/xlink" xml:space="preserve" overflow="hidden"><defs><clipPath id="clip0"><rect x="358" y="766" width="76" height="76"/></clipPath></defs><g clip-path="url(#clip0)" transform="translate(-358 -766)"><path d="M391.008 781.754C393.608 781.984 396.057 783.075 397.966 784.855 398.419 785.281 398.896 785.698 399.398 786.108 401.86 788.118 405.453 788.532 408.363 788.646L384.169 812.837 380.806 813.431 372.227 822.01 379.669 820.696 378.355 828.138 386.933 819.559 387.526 816.196 411.787 791.937C411.893 794.87 412.287 798.536 414.329 801.036 414.718 801.511 415.116 801.967 415.521 802.403 417.694 804.754 418.82 807.886 418.642 811.082 418.642 811.9 418.629 812.767 418.615 813.568 418.604 814.146 418.594 814.702 418.59 815.199L418.581 816.804C418.472 819.888 418.622 822.975 419.028 826.034L419.148 826.718 417.191 825.981 417.191 826.008 390.759 816.097 390.199 819.27 417.678 829.571C418.288 832.26 420.241 834.445 422.846 835.35 424.49 835.965 426.321 835.132 426.936 833.488 427.079 833.106 427.147 832.701 427.137 832.293 427.06 830.979 426.211 829.836 424.975 829.382 422.888 828.458 423.37 823.761 424.278 817.249 425.241 810.35 426.332 802.531 423.028 796.507 422.041 794.72 420.762 793.11 419.244 791.744 417.863 790.62 416.896 789.068 416.497 787.332L416.474 787.253 421.514 782.213 424.348 785.047 426.267 774.172 415.391 776.087 418.156 778.85 413.116 783.892 413.037 783.869C411.3 783.47 409.747 782.503 408.622 781.121 407.256 779.604 405.647 778.325 403.86 777.337 397.833 774.034 390.014 775.121 383.118 776.087 376.604 776.994 371.906 777.479 370.983 775.388 370.539 774.172 369.425 773.326 368.133 773.227 366.376 773.153 364.892 774.518 364.818 776.274 364.8 776.698 364.867 777.121 365.015 777.518 365.92 780.123 368.105 782.077 370.794 782.686L381.095 810.164 384.266 809.604 373.737 781.221 374.381 781.335C377.493 781.748 380.634 781.902 383.771 781.795L385.27 781.781C385.761 781.776 386.31 781.764 386.881 781.752 387.707 781.735 388.606 781.717 389.443 781.717 389.855 781.702 390.267 781.708 390.678 781.734Z" fill="#843C0C"/></g></svg>