<svg width="92" height="86" xmlns="http://www.w3.org/2000/svg" xmlns:xlink="http://www.w3.org/1999/xlink" xml:space="preserve" overflow="hidden"><defs><clipPath id="clip0"><rect x="96" y="186" width="92" height="86"/></clipPath></defs><g clip-path="url(#clip0)" transform="translate(-96 -186)"><path d="M39.4167 39.5062C37.5354 41.3875 36.1021 43.4479 35.2062 45.4188 28.5771 37.5354 24.3667 30.5479 24.2771 26.875 24.6354 26.4271 25.0833 25.9792 25.5312 25.5312 25.9792 25.0833 26.4271 24.725 26.875 24.2771 30.4583 24.4562 37.4458 28.5771 45.4188 35.2958 43.3583 36.1917 41.2979 37.625 39.4167 39.5062ZM25.0833 55.5417C23.0229 56.4375 21.0521 57.8708 19.1708 59.7521 19.0812 59.8417 19.0812 59.8417 18.9917 59.9313 14.6917 50.9729 15.4083 40.0438 20.9625 31.175 18.5438 38.1625 20.1562 47.1208 25.0833 55.5417L25.0833 55.5417ZM59.9313 18.9917C59.8417 19.0812 59.8417 19.0812 59.7521 19.1708 57.8708 21.0521 56.4375 23.1125 55.5417 25.0833L55.5417 25.0833C47.1208 20.1562 38.0729 18.5438 31.175 20.9625 40.0438 15.4083 50.9729 14.6917 59.9313 18.9917ZM72.6521 68.8896 45.7771 42.0146C45.5979 41.8354 45.4188 41.7458 45.2396 41.5667 46.8521 40.4021 48.4646 39.6854 49.6292 39.5958 49.7188 37.8042 51.1521 35.3854 53.3021 33.1458 55.5417 30.9062 57.9604 29.5625 59.7521 29.4729 59.8417 27.6812 61.275 25.2625 63.425 23.0229 65.575 20.8729 68.0833 19.5292 69.7854 19.35 57.2438 7.97292 37.8042 8.15208 24.1875 19.35 22.8438 18.4542 20.9625 18.6333 19.7083 19.7979 18.5438 20.9625 18.3646 22.8438 19.2604 24.2771 8.0625 37.8937 7.88333 57.3333 19.2604 69.9646 19.4396 68.1729 20.7833 65.7542 22.9333 63.6042 25.1729 61.3646 27.5917 60.0208 29.3833 59.9313 29.4729 58.1396 30.9062 55.7208 33.0563 53.4813 35.2958 51.2417 37.7146 49.8979 39.5062 49.8083 39.5958 48.5542 40.3125 46.9417 41.5667 45.2396 41.6562 45.4188 41.8354 45.5979 42.0146 45.7771L68.8896 72.6521C69.4271 73.1896 70.1438 73.4583 70.7708 73.4583 71.3979 73.4583 72.1146 73.1896 72.6521 72.6521 73.7271 71.6667 73.7271 69.875 72.6521 68.8896Z" transform="matrix(1.06977 0 0 1 96 186)"/></g></svg>